# xmcd
#
# Track frame offsets:
#	150
#	18510
#	35887
#	54210
#
# Disc length: 953 seconds
#
# Revision: 1
# Processed by: cddbd v1.5PL3 Copyright (c) Steve Scherf et al.
# Submitted via: CDex 1.50Beta5
#
DISCID=2c03b704
DTITLE=榊さん(浅川悠) - 『あずまんが大王』キャラクターCDシリーズVol.2 榊さん
DYEAR=2002
DGENRE=Anime
TTITLE0=榊さん(浅川悠)/心は少女でパラシュート
TTITLE1=榊さん&美浜ちよ(浅川悠&金田朋子)/魔法猫に会える日は
TTITLE2=榊さん(浅川悠)/心は少女でパラシュート(off vocal)
TTITLE3=榊さん&美浜ちよ(浅川悠&金田朋子)/魔法猫に会える日は(off vocal)
EXTD=
EXTT0=
EXTT1=
EXTT2=
EXTT3=
PLAYORDER=
